<?xml version="1.0" encoding="UTF-8" standalone="no"?>
<svg width="85px" height="64px" viewBox="0 0 85 64" version="1.1" xmlns="http://www.w3.org/2000/svg" xmlns:xlink="http://www.w3.org/1999/xlink">
    <!-- Generator: Sketch 42 (36781) - http://www.bohemiancoding.com/sketch -->
    <title>noun_27494_cc</title>
    <desc>Created with Sketch.</desc>
    <defs></defs>
    <g id="Page-1" stroke="none" stroke-width="1" fill="none" fill-rule="evenodd">
        <g id="noun_27494_cc" fill-rule="nonzero" fill="#000000">
            <path d="M55.627,10.681 L55.627,4.778 L55.627,3.065 L55.627,0.694 L30.017,0.694 L30.017,3.065 L30.017,4.778 L30.017,10.681 L0.645,10.681 L0.645,36.768 L33.968,36.768 L33.968,33.435 L51.677,33.435 L51.677,36.768 L85,36.768 L85,10.681 L55.627,10.681 Z M34.301,4.778 L51.343,4.778 L51.343,10.681 L34.301,10.681 L34.301,4.778 Z" id="Shape"></path>
            <polygon id="Shape" points="51.677 38.094 51.677 40.174 33.968 40.174 33.968 38.094 0.645 38.094 0.645 63.5 85 63.5 85 38.094"></polygon>
        </g>
    </g>
</svg>