<?xml version="1.0" encoding="UTF-8" standalone="no"?>
<svg width="76px" height="90px" viewBox="0 0 76 90" version="1.1" xmlns="http://www.w3.org/2000/svg" xmlns:xlink="http://www.w3.org/1999/xlink">
    <!-- Generator: Sketch 42 (36781) - http://www.bohemiancoding.com/sketch -->
    <title>noun_99316_cc</title>
    <desc>Created with Sketch.</desc>
    <defs></defs>
    <g id="Page-1" stroke="none" stroke-width="1" fill="none" fill-rule="evenodd">
        <g id="noun_99316_cc" fill-rule="nonzero" fill="#000000">
            <path d="M0.45,75.617 L14.557,66.592 C14.44,65.319 14.407,62.446 15.061,59.604 C15.838,56.225 17.398,55.219 17.244,54.908 C16.939,54.297 16.734,50.012 16.365,49.014 C16.035,48.125 15.782,47.399 15.782,47.399 L14.057,43.744 C13.442,41.859 12.949,42.018 14.111,41.051 L18.961,41.051 L24.036,47.359 L27.269,52.215 L33.027,51.219 L41.248,46.632 C41.248,46.632 50.143,42.489 53.437,41.051 L61.179,41.051 C61.547,42.419 61.226,43.774 59.888,44.754 C58.847,45.512 54.924,47.384 53.117,48.942 C51.309,50.5 40.301,62.057 40.301,62.057 L32.736,67.911 L25.736,73.386 L14.168,90 C8.412,87.867 2.26,81.414 0.45,75.617 L0.45,75.617 Z M37.733,0 C39.869,0 41.6,1.692 41.6,3.776 C41.6,5.862 39.871,7.551 37.733,7.551 C35.598,7.551 33.867,5.862 33.867,3.776 C33.867,1.692 35.598,0 37.733,0 L37.733,0 Z M37.733,7.931 C52.412,7.931 64.451,18.959 65.633,32.994 L9.833,32.994 C11.019,18.959 23.057,7.931 37.733,7.931 L37.733,7.931 Z M2.269,39.564 C1.017,39.564 0,38.542 0,37.283 C0,36.024 1.017,35.005 2.269,35.005 L73.73,35.005 C74.982,35.005 76,36.025 76,37.283 C76,38.541 74.982,39.564 73.73,39.564 L2.269,39.564 L2.269,39.564 Z" id="Shape"></path>
        </g>
    </g>
</svg>