<?xml version="1.0" encoding="utf-8"?>
<!-- Generator: Adobe Illustrator 19.2.0, SVG Export Plug-In . SVG Version: 6.00 Build 0)  -->
<svg version="1.1" id="Layer_1" xmlns:sketch="http://www.bohemiancoding.com/sketch/ns"
	 xmlns="http://www.w3.org/2000/svg" xmlns:xlink="http://www.w3.org/1999/xlink" x="0px" y="0px" viewBox="0 0 90 66.5"
	 style="enable-background:new 0 0 90 66.5;" xml:space="preserve">
<title>hamburger</title>
<desc>Created with Sketch.</desc>
<g sketch:type="MSPage">
	<path sketch:type="MSShapeGroup" d="M86,8.4c2.2,0,4-1.8,4-4s-1.8-4-4-4H4c-2.2,0-4,1.8-4,4s1.8,4,4,4H86z M86,36.8
		c2.2,0,4-1.8,4-4s-1.8-4-4-4H4c-2.2,0-4,1.8-4,4s1.8,4,4,4H86z M86,65.3c2.2,0,4-1.8,4-4c0-2.2-1.8-4-4-4H4c-2.2,0-4,1.8-4,4
		c0,2.2,1.8,4,4,4H86z"/>
</g>
</svg>
